<?xml version="1.0" standalone="no"?><!DOCTYPE svg PUBLIC "-//W3C//DTD SVG 1.1//EN" "http://www.w3.org/Graphics/SVG/1.1/DTD/svg11.dtd"><svg t="1774935490213" class="icon" viewBox="0 0 1024 1024" version="1.1" xmlns="http://www.w3.org/2000/svg" p-id="12220" xmlns:xlink="http://www.w3.org/1999/xlink" width="64" height="64"><path d="M512 844.714667l360.32-240.213334a42.666667 42.666667 0 0 1 51.328 68.010667l-3.968 2.986667-384 256a42.666667 42.666667 0 0 1-42.410667 2.816l-4.949333-2.816-384-256a42.666667 42.666667 0 0 1 43.050667-73.514667l4.266666 2.517333L512 844.714667l360.32-240.213334L512 844.714667z m23.68-752.213334l384 256a42.666667 42.666667 0 0 1 0 70.997334l-384 256a42.666667 42.666667 0 0 1-47.36 0l-384-256a42.666667 42.666667 0 0 1 0-70.997334l384-256a42.666667 42.666667 0 0 1 47.36 0zM512 179.285333L204.928 384 512 588.714667 819.072 384 512 179.285333z" p-id="12221" fill="#a1faff"></path></svg>