<?xml version="1.0" standalone="no"?><!DOCTYPE svg PUBLIC "-//W3C//DTD SVG 1.1//EN" "http://www.w3.org/Graphics/SVG/1.1/DTD/svg11.dtd"><svg t="1774937115122" class="icon" viewBox="0 0 1024 1024" version="1.1" xmlns="http://www.w3.org/2000/svg" p-id="17357" xmlns:xlink="http://www.w3.org/1999/xlink" width="64" height="64"><path d="M513.103448 512z m-211.862069 1.103448v-1.103448q0 58.482759 28.137931 107.034483t76.689656 77.241379q48.551724 28.689655 106.482758 28.137931t106.482759-28.689655q48.551724-28.137931 77.241379-76.689655t28.689655-106.482759q0-57.931034-28.689655-106.482758t-77.241379-77.24138q-48.551724-28.689655-106.482759-28.689655T406.068966 328.827586q-48.551724 28.689655-76.689656 77.24138T301.241379 513.103448zM512 0q-139.034483 0-258.206897 69.517241-115.862069 68.413793-184.275862 184.275862-69.517241 119.172414-69.517241 258.206897t69.517241 258.206897q68.413793 115.862069 184.275862 184.275862 119.172414 69.517241 258.206897 69.517241t258.206897-69.517241q115.862069-68.413793 184.275862-184.275862 69.517241-119.172414 69.517241-258.206897t-69.517241-258.206897Q886.068966 137.931034 770.206897 69.517241 651.034483 0 512 0z m0 953.37931q-120.275862 0-222.896552-60.689655-99.310345-58.482759-157.793103-157.793103-60.689655-102.62069-60.689655-222.896552t60.689655-222.896552q58.482759-99.310345 157.793103-157.793103 102.62069-60.689655 222.896552-60.689655t222.896552 60.689655q99.310345 58.482759 157.793103 157.793103 60.689655 102.62069 60.689655 222.896552t-60.689655 222.896552q-58.482759 99.310345-157.793103 157.793103-102.62069 60.689655-222.896552 60.689655z" p-id="17358" fill="#b197fc"></path></svg>