<?xml version="1.0" encoding="UTF-8"?>
<svg id="_图层_1" data-name="图层_1" xmlns="http://www.w3.org/2000/svg" version="1.1" viewBox="0 0 1000 1000">
  <!-- Generator: Adobe Illustrator 29.6.1, SVG Export Plug-In . SVG Version: 2.1.1 Build 9)  -->
  <defs>
    <style>
      .st0 {
        fill: #6cbeb1;
      }
    </style>
  </defs>
  <path class="st0" d="M804.71,640.4v-323.28h-35.39s0,0,0,0h-69.82c0,114.36-92.82,207.4-206.91,207.4s-206.91-93.04-206.91-207.4h-69.82s0,0,0,0h-35.4v323.28h-52.19v69.82h52.19v137.85h69.82v-137.85h484.62v137.85h69.82v-137.85h52.2v-69.82h-52.2ZM306.66,640.4h-56.39v-189.53c14.81,26.81,33.91,50.93,56.39,71.39v118.14ZM457.68,640.4h-81.2v-71.69c25.25,11.74,52.55,19.79,81.2,23.42v48.27ZM608.7,640.4h-81.2v-48.27c28.66-3.63,55.95-11.68,81.2-23.42v71.69ZM734.9,640.4h-56.38v-118.14c22.47-20.46,41.57-44.57,56.38-71.38v189.52Z"/>
  <circle class="st0" cx="753.38" cy="216.01" r="72.96" transform="translate(-25.22 126.4) rotate(-9.43)"/>
  <rect class="st0" x="166.22" y="150.15" width="131.46" height="131.46"/>
</svg>