<?xml version="1.0" encoding="UTF-8"?><svg id="_图层_1" xmlns="http://www.w3.org/2000/svg" viewBox="0 0 380.04 312.09"><defs><style>.cls-1{fill:#00ffc8;}</style></defs><path class="cls-1" d="M90.57,74.26S31.69,121.36,12.42,205.72c0,0-9.42-87.14,78.15-131.46h0Z"/><path class="cls-1" d="M21.2,98.03S92.49,2.11,259.28,25.87c8.35,1.07,16.7,3,24.84,5.35,10.28,2.57,32.76,7.07,79.22,9.85,0,0-195.27-123.11-341.93,56.95h-.43.21Z"/><path class="cls-1" d="M0,275.52S45.39-18.45,380.04,61.84c0,0-56.31,31.26-76.22,134.03-20.34,102.99-137.46,153.73-252.43,84.14,0,0,38.54,11.35,59.74,10.28,0,0-42.18-16.27-53.96-39.61,0,0,96.35,65.73,168.07,7.07,71.73-58.45,41.97-139.38,41.97-139.38,0,0,15.2,10.49,18.84,29.55,0,0,9.42-35.76,38.54-55.03,0,0-79.22-14.77-151.8,15.84,0,0,31.69,53.96-1.93,130.18,0,0,0-72.15-32.12-115.19,0,0-82.65,34.04-138.53,151.37H.21v.43h-.21Z"/><path class="cls-1" d="M374.47,78.76s-16.7,11.35-24.19,33.19c0,0,21.2,1.07,24.19-33.19Z"/><path class="cls-1" d="M343.43,120.72s-13.92,16.91-16.7,47.53c-2.57,30.62-15.84,75.15-39.61,95.49,0,0,58.24-24.84,56.31-143.02h0Z"/></svg>