<?xml version="1.0" encoding="UTF-8"?><svg id="_图层_1" xmlns="http://www.w3.org/2000/svg" viewBox="84.07 0.00 596.42 596.35"><defs><style>.cls-1{isolation:isolate;}.cls-2{fill:#b9ff66;}</style></defs><path class="cls-2" d="M114.18,491.1s26.83,24.97,48.88,27.89c0,0-3.45,39.05,12.75,69.34,0,0-58.71-11.16-61.63-97.23Z"/><path class="cls-2" d="M195.48,584.34s30.55-31.88,36.66-68.81c6.11-36.93,11.69-19.92,23.11-20.46,7.44-.53,17.53,0,31.35,1.33,39.85,4.78,43.57-1.06,43.57-1.06,0,0-28.69,82.09-134.42,89h-.27Z"/><path class="cls-2" d="M672.33,24.87S389.41-111.68,224.17,255.19c0,0,0-52.07,15.14-79.17,0,0-35.33,5.05-63.49,22.05,0,0-15.41-100.68,89.53-191.81,0,0-167.63,45.69-138.94,229,0,0-32.41,45.96-33.74,108.39-1.33,62.43-2.66,106,31.88,132.03,34.54,25.77,54.19,39.05,93.25,17.8,39.05-21.25,51.8-14.61,75.71-12.75,23.91,2.13,127.25,9.03,206.95-84.74,79.7-93.78,4.52-286.64-169.76-206.95,0,0,85.54-174.27,341.37-164.18h.27ZM335.21,302.21c56.85-51.54,111.31-45.69,115.56-13.28,4.25,32.41-31.61,97.23-97.76,110.78-66.15,13.55-66.41,6.38-68.27-5.58,0,0-6.38-40.65,50.21-92.18h.27v.27Z"/><path class="cls-2" d="M313.96,371.02s16.21-42.24,55.79-54.46c0,0,9.83,20.72,0,34.8-9.83,14.08-29.75,7.7-55.79,19.92h0v-.27Z"/></svg>