<svg xmlns="http://www.w3.org/2000/svg" xmlns:xlink="http://www.w3.org/1999/xlink" fill="none" version="1.1" width="200" height="39.240509033203125" viewBox="0 0 200 39.240509033203125"><defs><linearGradient x1="3.067111926835987e-17" y1="0.5000000596046448" x2="1" y2="0.5000000596046448" id="master_svg0_0_89"><stop offset="0%" stop-color="#00DED1" stop-opacity="1"/><stop offset="100%" stop-color="#00ACA7" stop-opacity="1"/></linearGradient></defs><path d="M54.474689,12.613924C53.898743,12.221519,53.177223,12.031645,52.310135,12.031645C51.443043,12.031645,50.664562,12.240506,50.075958,12.658229C49.48735,13.07595,49.000004,13.544304,48.613926,14.069621C48.613926,14.069621,36.791145,30.51899,36.791145,30.51899C36.791145,30.51899,43.544312,30.51899,43.544312,30.51899C43.544312,30.51899,52.196205,18.449368,52.196205,18.449368C52.196205,18.449368,55.506329,23.259493,55.506329,23.259493C55.81646,23.696201,56.145573,24.158228,56.487347,24.658228C56.829117,25.158228,57.126587,25.56962,57.386082,25.892405C56.943047,25.854431,56.424057,25.835443,55.829121,25.835443C55.829121,25.835443,49.474689,25.835443,49.474689,25.835443C49.474689,25.835443,46.031651,30.512655,46.031651,30.512655C46.031651,30.512655,67.474693,30.512655,67.474693,30.512655C67.474693,30.512655,55.9557,14.063291,55.9557,14.063291C55.550636,13.481011,55.056965,13,54.481014,12.607594C54.481014,12.607594,54.474689,12.613924,54.474689,12.613924ZM91.829124,20.822784C90.651901,20.000002,88.936714,19.588608,86.677216,19.588608C86.677216,19.588608,76.645569,19.588608,76.645569,19.588608C75.981018,19.588608,75.493675,19.493671,75.170891,19.303797C74.848099,19.113924,74.68988,18.784811,74.68988,18.310127C74.68988,17.835443,74.848099,17.512659,75.170891,17.329113C75.493675,17.145569,75.981018,17.056961,76.645569,17.056961C76.645569,17.056961,89.430389,17.056961,89.430389,17.056961C89.430389,17.056961,93.094948,12.329114,93.094948,12.329114C93.094948,12.329114,77.082291,12.329114,77.082291,12.329114C75.683556,12.329114,74.48735,12.462026,73.48735,12.734178C72.48735,13.00633,71.670898,13.386076,71.031647,13.873417C70.398743,14.36076,69.930389,14.955696,69.626595,15.651898C69.322792,16.348101,69.170898,17.126581,69.170898,17.974684C69.170898,18.753164,69.310135,19.468355,69.582283,20.107595C69.860771,20.753166,70.278488,21.297468,70.848106,21.753162C71.417732,22.208858,72.132912,22.556961,73.000008,22.816454C73.860764,23.06962,74.89241,23.196205,76.088608,23.196205C76.088608,23.196205,86.120262,23.196205,86.120262,23.196205C86.797478,23.196205,87.297478,23.297468,87.607597,23.49367C87.917725,23.696201,88.075966,24.031645,88.075966,24.5C88.075966,24.968353,87.917725,25.310125,87.607597,25.518988C87.297478,25.727846,86.797478,25.829115,86.120262,25.829115C86.120262,25.829115,72.177223,25.829115,72.177223,25.829115C72.177223,25.829115,68.512665,30.506329,68.512665,30.506329C68.512665,30.506329,85.683556,30.506329,85.683556,30.506329C87.082298,30.506329,88.278488,30.373419,89.278488,30.101267C90.278488,29.829115,91.101273,29.443037,91.746841,28.930378C92.392418,28.424049,92.860764,27.79747,93.151901,27.056963C93.443039,26.316456,93.594948,25.48101,93.594948,24.556961C93.594948,22.892403,93.006332,21.645569,91.829124,20.816456C91.829124,20.816456,91.829124,20.822784,91.829124,20.822784ZM26.15823,3.1645572C26.15823,3.1645572,8.0759497,22.316454,8.0759497,22.316454C8.0759497,22.316454,8.0759497,32.278481,8.0759497,32.278481C8.0759497,32.278481,17.246838,22.746834,17.246838,22.746834C17.246838,22.746834,24.02532,30.556961,24.02532,30.556961C24.02532,30.556961,34.525318,30.556961,34.525318,30.556961C34.525318,30.556961,22.689875,17.088608,22.689875,17.088608C22.689875,17.088608,36.075951,3.1645572,36.075951,3.1645572C36.075951,3.1645572,26.15823,3.1645572,26.15823,3.1645572ZM12.037976,3.1645572C12.037976,3.1645572,8.227849,6.9113927,8.227849,6.9113927C8.227849,6.9113927,8.227849,8.1265821,8.227849,8.1265821C8.227849,8.1265821,13.272153,3.1645572,13.272153,3.1645572C13.272153,3.1645572,12.037976,3.1645572,12.037976,3.1645572ZM15.601268,7.2468352C15.601268,7.2468352,8.227849,14.696202,8.227849,14.696202C8.227849,14.696202,8.227849,16.13924,8.227849,16.13924C8.227849,16.13924,15.601268,8.6518984,15.601268,8.6518984C15.601268,8.6518984,15.601268,7.2468352,15.601268,7.2468352ZM13.974684,3.1645572C13.974684,3.1645572,8.2341776,8.8164558,8.2341776,8.8164558C8.2341776,8.8164558,8.2341776,10.031646,8.2341776,10.031646C8.2341776,10.031646,15.215192,3.1645572,15.215192,3.1645572C15.215192,3.1645572,13.981014,3.1645572,13.981014,3.1645572C13.981014,3.1645572,13.974684,3.1645572,13.974684,3.1645572ZM15.601268,3.2721517C15.601268,3.2721517,8.227849,10.727849,8.227849,10.727849C8.227849,10.727849,8.227849,11.949366,8.227849,11.949366C8.227849,11.949366,15.607595,4.4556961,15.607595,4.4556961C15.607595,4.4556961,15.607595,3.2721517,15.607595,3.2721517C15.607595,3.2721517,15.601268,3.2721517,15.601268,3.2721517ZM8.227849,3.1645572C8.227849,3.1645572,8.227849,4.5696201,8.227849,4.5696201C8.227849,4.5696201,9.6582289,3.1645572,9.6582289,3.1645572C9.6582289,3.1645572,8.227849,3.1645572,8.227849,3.1645572ZM10.335443,3.1645572C10.335443,3.1645572,8.227849,5.2405057,8.227849,5.2405057C8.227849,5.2405057,8.227849,6.4556961,8.227849,6.4556961C8.227849,6.4556961,11.569621,3.1645572,11.569621,3.1645572C11.569621,3.1645572,10.335443,3.1645572,10.335443,3.1645572ZM25.949369,0C25.949369,0,17.721521,6.9620252,17.721521,6.9620252C17.721521,6.9620252,3.7974689,22.139242,3.7974689,22.139242C3.7974689,22.139242,0,26.582277,0,26.582277C0,26.582277,3.7974689,23.145569,3.7974689,23.145569C3.7974689,23.145569,20.886078,5.6962028,20.886078,5.6962028C20.886078,5.6962028,25.949369,0,25.949369,0ZM15.607595,5.2594943C15.607595,5.2594943,8.2341776,12.71519,8.2341776,12.71519C8.2341776,12.71519,8.2341776,13.936708,8.2341776,13.936708C8.2341776,13.936708,15.607595,6.4430385,15.607595,6.4430385C15.607595,6.4430385,15.607595,5.2594943,15.607595,5.2594943Z" fill-rule="evenodd" fill="url(#master_svg0_0_89)" fill-opacity="1"/><path d="M199.50628546874998,8.911393674902344C199.65185546875,8.765824274902343,199.74047546875,8.670887974902342,199.74680546874998,8.651900274902344C199.76579546875,8.620254974902345,199.67717546875,8.715191374902343,199.50628546874998,8.911393674902344ZM123.52528046875,12.322785874902344L123.52528046875,30.512658774902345L139.81009246874999,30.512658774902345L143.50629846875,25.835447774902345L129.22780646875,25.835447774902345L129.22780646875,12.329115874902344L129.22780646875,12.322785874902344L123.52528046875,12.322785874902344ZM145.48730446874998,12.322785874902344L145.48730446874998,30.512658774902345L163.23413846875002,30.512658774902345L166.89870446875,25.835447774902345L151.22147746875,25.835447774902345L151.22147746875,23.360763774902345L162.55058246875,23.360763774902345L165.82907846875,19.22784877490234L151.22147746875,19.22784877490234L151.22147746875,17.050635774902343L163.15185546875,17.050635774902343L166.84806046875002,12.322785874902344L145.48730446874998,12.322785874902344ZM165.18984246875,39.240508774902345L184.08856246875,21.335445774902343L199.99996546875002,4.430381774902344C199.99996546875002,4.430381774902344,184.08856946875,19.158229774902345,183.83540346875,19.84810377490234C183.58224446875,20.531646774902345,165.18984246875,39.240508774902345,165.18984246875,39.240508774902345ZM166.67718546875,34.50633277490235L166.68350246875002,34.51265877490235L192.04426546874998,9.645571274902345L182.84173546875002,16.854429774902343L177.12021646875002,11.879748774902342L169.91134646875,11.879748774902342L178.61387646875,20.829116774902342L166.67718546875,34.50633277490235ZM96.15185546875,17.056962774902345L112.02527846875,17.056962774902345C112.90502546875,17.056962774902345,113.58857746875,17.240508774902345,114.07591846875,17.613926774902346C114.56325946875,17.987344774902343,114.80376046875,18.487342774902345,114.80376046875,19.120254774902342C114.80376046875,19.753165774902342,114.55693046875,20.259494774902343,114.07591846875,20.645570774902342C113.58857746875,21.025317774902344,112.90502546875,21.215192774902345,112.02527846875,21.215192774902345L96.15185546875,21.215192774902345L96.15185546875,30.512658774902345L101.82907106875,30.512658774902345L101.82907106875,25.860763774902345L111.47465046875,25.860763774902345C112.90503146875,25.860763774902345,114.18350046875,25.696204774902345,115.30375246875,25.373420774902343C116.42400546875,25.044305774902345,117.37338246875,24.594938774902342,118.15819346875,24.012658774902345C118.93667446875,23.430379774902345,119.53160246875,22.727851774902344,119.93666646875,21.905065774902344C120.34173046875,21.082282774902342,120.54427146875,20.158228774902344,120.54427146875,19.145571774902344C120.54427146875,18.13291377490234,120.34173046875,17.208862774902343,119.93666646875,16.373420774902343C119.53160246875,15.537976774902344,118.94299846875,14.822786774902344,118.17084846875,14.227849974902345L118.17717546875,14.227849974902345C117.40502346875,13.626584074902343,116.46198046875,13.164559374902344,115.33539946875,12.829115874902344C114.21514546875,12.493672374902344,112.93666646875,12.329115874902344,111.50628646875,12.329115874902344L99.93033866875,12.329115874902344L96.15185546875,17.056962774902345ZM174.38604746875,33.518989774902344L183.83540346875,26.056962774902345L189.30377246875,31.031646774902345L196.76579546875,31.031646774902345L188.06327846875,22.082278774902345C188.06327846875,22.082278774902345,197.82273546875,10.784811474902344,199.50628546874998,8.911393674902344C196.92401546874999,11.537976274902345,174.38604746875,33.518989774902344,174.38604746875,33.518989774902344Z" fill="#222222" fill-opacity="1"/></svg>