<svg xmlns="http://www.w3.org/2000/svg" xmlns:xlink="http://www.w3.org/1999/xlink" fill="none" version="1.1" width="457" height="90" viewBox="0 0 457 90"><defs><clipPath id="master_svg0_305_1100"><rect x="0" y="0" width="457" height="90" rx="0"/></clipPath><linearGradient x1="0.09436865150928497" y1="0.13452260196208954" x2="1.0859889314022317" y2="0.24789565880292663" id="master_svg1_23_8615"><stop offset="0%" stop-color="#6AF4DE" stop-opacity="1"/><stop offset="100%" stop-color="#15B5C1" stop-opacity="1"/></linearGradient></defs><g clip-path="url(#master_svg0_305_1100)"><path d="M420.121767265625,45.580638400390626Q420.700227265625,43.983860400390626,456.999927265625,10.161285400390625L420.700227265625,48.91934940039062L377.458787265625,89.99999240039062Q419.543287265625,47.032249400390626,420.121767265625,45.580638400390626ZM456.42144726562503,19.887101200390624Q456.36590726562497,19.980031000390625,455.37428726562496,20.983980400390625C456.09048726562503,20.185712400390624,456.476237265625,19.777107200390624,456.42144726562503,19.887101200390624ZM455.37428726562496,20.983980400390625C451.54836726562496,25.248272400390626,438.292787265625,40.632087400390624,432.392577265625,47.479602400390625C430.651477265625,49.50024440039063,429.550877265625,50.77755740039063,429.522077265625,50.80645340039062L449.479657265625,71.27420040039063L432.414487265625,71.27420040039063L419.977127265625,59.80645740039063L398.428727265625,76.93548540039062Q448.61964726562496,27.822618400390624,455.37428726562496,20.983980400390625ZM404.792007265625,27.290300400390624L388.305297265625,27.290300400390624L408.118257265625,47.903205400390625L380.78503726562496,79.25803340039063L438.77775726562504,22.209653400390625L417.807827265625,38.75803940039063L404.792007265625,27.290300400390624ZM270.005924265625,32.661285400390625C271.741371265625,34.112896400390625,273.18756826562503,35.709671400390626,274.055301265625,37.596767400390625C275.067642265625,39.483863400390625,275.501503265625,41.66128340039063,275.501503265625,44.129036400390625C275.501503265625,46.451614400390625,274.923034265625,48.629036400390625,274.055301265625,50.516132400390624C273.18756826562503,52.40323240039063,271.741371265625,54.000000400390626,270.005924265625,55.30645340039062C268.270492265625,56.612899400390624,266.101185265625,57.62903240039063,263.498020265625,58.35483540039063C260.894848265625,59.08064640039063,258.002445265625,59.51612440039062,254.676174265625,59.51612440039062L232.693899265625,59.51612440039062L232.693899265625,70.11290340039062L219.678076375625,70.11290340039062L219.678076375625,48.774189400390625L255.977771265625,48.774189400390625C257.857837265625,48.774189400390625,259.44864626562503,48.33870340039063,260.605613265625,47.46773940039063C261.762581265625,46.596767400390625,262.341053265625,45.43547840039062,262.341053265625,43.983860400390626C262.341053265625,42.532249400390626,261.762581265625,41.370964400390626,260.605613265625,40.499992400390624C259.593273265625,39.62902440039063,258.002445265625,39.193542400390626,255.977771265625,39.193542400390626L219.533447265625,39.193542400390626L228.210662865625,28.306446400390627L254.676174265625,28.306446400390627C258.002445265625,28.306446400390627,260.894848265625,28.741930400390626,263.498020265625,29.467735400390627C266.101185265625,30.193540400390624,268.270492265625,31.354833400390625,270.005924265625,32.661285400390625ZM295.314491265625,28.306446400390627L295.314491265625,59.22579540039062L327.854057265625,59.22579540039062L319.466079265625,69.96773140039062L282.298671265625,69.96773140039062L282.298671265625,28.306446400390627L295.314491265625,28.306446400390627ZM345.497687265625,53.56450640039063L345.497687265625,59.22579540039062L381.363467265625,59.22579540039062L372.97550726562497,69.96773140039062L332.481847265625,69.96773140039062L332.481847265625,28.306446400390627L381.21888726562497,28.306446400390627L372.830897265625,39.193542400390626L345.497687265625,39.193542400390626L345.497687265625,44.12902040039062L378.904987265625,44.12902040039062L371.384717265625,53.56450640039063L345.497687265625,53.56450640039063Z" fill-rule="evenodd" fill="#FFFFFF" fill-opacity="1"/><path d="M8.6772156,50.80646239776611L40.493671,15.967752397766112L59.294304,0.00001239776611328125L47.724682,13.064527397766113L8.6772156,53.12904039776611L0,60.96774739776611L8.6772156,50.80646239776611ZM18.511375,51.24194439776611L18.511375,74.03226939776611L39.437096,52.17290639776611L54.955696,70.11291239776611L78.962662,70.11291239776611L51.809216,39.24877239776611L82.43354,7.258076697766113L59.728146,7.258076697766113L18.511375,51.24194439776611ZM31.961081,7.258076697766113L34.853485,7.258076697766113L18.800634,23.08065539776611L18.800634,20.322592397766112L31.961081,7.258076697766113ZM27.477848,7.258076697766113L30.370255,7.258076697766113L18.800634,18.580657397766114L18.800634,15.822592397766114L27.477848,7.258076697766113ZM23.573101,7.258076697766113L26.465504,7.258076697766113L18.800634,14.806463397766112L18.800634,12.048400397766112L23.573101,7.258076697766113ZM22.126902,7.258076697766113L18.800634,10.451624397766114L18.800634,7.258076697766113L22.126902,7.258076697766113ZM18.800634,24.677432397766115L35.721203,7.548398997766113L35.721203,10.161302397766113L18.800634,27.435494397766114L18.800634,24.677432397766115ZM18.800634,29.177411397766114L35.721203,12.048380397766113L35.721203,14.806445397766113L18.800634,31.935479397766112L18.800634,29.177411397766114ZM18.800634,33.677430397766116L35.576584,16.548400397766112L35.576584,19.741948397766112L18.800634,37.01614139776611L18.800634,33.677430397766116ZM127.84428,32.22581939776612L154.16519,69.96774739776612L105.28351,69.96776339776612L113.09302,59.22581939776612L127.55504,59.22581939776612C129.00124,59.22581939776612,130.1582,59.22581939776612,131.17055,59.37098039776611C130.59206,58.50001639776611,129.86894,57.629044397766116,129.14584,56.46775539776611C128.42274,55.306466397766116,127.69965,54.29033339776611,126.97655,53.27420539776611L119.45629,42.241948397766116L99.643326,69.96774739776612L84.168968,69.96774739776612L111.21295,32.22581939776612C112.08067,31.064526397766112,113.23764,30.048400397766112,114.53922,29.032269397766115C115.84081,28.016139397766114,117.57626,27.580657397766114,119.60093,27.580657397766114C121.481,27.580657397766114,123.21642,28.016139397766114,124.518,28.887110397766115C125.8196,29.758074397766112,126.97656,30.919367397766113,127.84428,32.22581939776612ZM171.80887,44.12903739776611C172.532,44.564515397766115,173.68896,44.85484039776611,175.13516,44.85484039776611L198.27438,44.854836397766114C203.33609,44.854836397766114,207.24086,45.87096839776611,209.98863,47.75806539776611C212.73643,49.645165397766114,214.03801,52.54839039776611,214.03801,56.322587397766114C214.03801,58.500008397766116,213.74876,60.387093397766115,213.02567,62.12903739776611C212.44719,63.87096839776611,211.29022,65.32258339776611,209.84402,66.48387639776611C208.39783,67.64516139776612,206.51778,68.51612539776612,204.20386,69.09676039776612C201.88991,69.67741839776612,199.14212,69.96774039776611,195.96049,69.96774039776611L156.7684,69.96774039776611L165.15637,59.225800397766115L196.97282,59.225800397766115C198.56364,59.225800397766115,199.7206,58.935479397766116,200.44371,58.49999339776611C201.16679,58.064515397766115,201.45604,57.19354739776611,201.45604,56.177414397766114C201.45604,55.016129397766115,201.16679,54.29032239776611,200.44371,53.854836397766114C199.7206,53.41935839776611,198.56366,53.12902939776611,196.97282,53.12902939776611L173.97821,53.12902939776611C171.23042,53.12902939776611,168.91649,52.83870839776611,166.8918,52.25806539776611C164.86711,51.677422397766115,163.27631,50.80645039776611,161.97472,49.79033039776611C160.67313,48.77419339776611,159.6608,47.46773639776611,159.08232,46.016129397766115C158.35922,44.564515397766115,158.06998,42.822587397766114,158.06998,41.080647397766114C158.06998,39.048386397766116,158.35922,37.30645439776611,159.08232,35.70967539776611C159.80542,34.112904397766115,160.81775,32.80645039776611,162.26396,31.64516339776611C163.71016,30.483876397766114,165.59021,29.612906397766114,167.90413,29.032261397766113C170.21808,28.451617397766114,172.96585,28.161294397766113,176.14751,28.161294397766113L212.73643,28.161294397766113L204.34843,39.048386397766116L175.13516,39.048386397766116C173.68896,39.048386397766116,172.532,39.193551397766115,171.80887,39.629033397766115C171.08577,39.91935839776611,170.6519,40.79032239776611,170.6519,41.80645439776611C170.6519,42.96774739776611,171.08577,43.693551397766115,171.80887,44.12903739776611Z" fill-rule="evenodd" fill="url(#master_svg1_23_8615)" fill-opacity="1"/></g></svg>