<svg xmlns="http://www.w3.org/2000/svg" xmlns:xlink="http://www.w3.org/1999/xlink" fill="none" version="1.1" width="385" height="346" viewBox="0 0 385 346"><defs><linearGradient x1="0.09436865150928497" y1="0.13452260196208954" x2="1.0805163700569849" y2="0.895684422869836" id="master_svg0_23_8615"><stop offset="0%" stop-color="#6AF4DE" stop-opacity="1"/><stop offset="100%" stop-color="#15B5C1" stop-opacity="1"/></linearGradient></defs><path d="M189.12283,74.627441L40.526321,237.45097L0,284.94113L40.526321,248.30586L222.89474,61.058819L276.92984,0L189.12283,74.627441ZM86.45607,346L86.45607,239.48625L278.95609,33.921566L385.00003,33.921566L241.97128,183.43452L368.78952,327.68234L256.66669,327.68234L184.18816,243.83723L86.45607,346ZM162.78073,33.921566L149.27196,33.921566L87.80703,94.980392L87.80703,107.87057L162.78073,33.921566ZM141.84212,33.921566L128.33334,33.921566L87.80703,73.94902L87.80703,86.839211L141.84212,33.921566ZM123.60526,33.921566L110.0965,33.921566L87.80703,56.309807L87.80703,69.199997L123.60526,33.921566ZM87.80703,48.847057L103.34212,33.921566L87.80703,33.921566L87.80703,48.847057ZM166.83334,35.278427L87.80703,115.33334L87.80703,128.22353L166.83334,47.490196L166.83334,35.278427ZM166.83334,56.309715L87.80703,136.36461L87.80703,149.25482L166.83334,69.199913L166.83334,56.309715ZM166.15791,77.341179L87.80703,157.39607L87.80703,173L166.15791,92.26667L166.15791,77.341179Z" fill-rule="evenodd" fill="url(#master_svg0_23_8615)" fill-opacity="1"/></svg>